<svg xmlns="http://www.w3.org/2000/svg" version="1.1" xmlns:xlink="http://www.w3.org/1999/xlink" xmlns:svgjs="http://svgjs.dev/svgjs" width="1500" height="935" viewBox="0 0 1500 935"><g transform="matrix(1,0,0,1,-0.9090909090909918,0.3785425101214628)"><svg viewBox="0 0 396 247" data-background-color="#ffffff" preserveAspectRatio="xMidYMid meet" height="935" width="1500" xmlns="http://www.w3.org/2000/svg" xmlns:xlink="http://www.w3.org/1999/xlink"><g id="tight-bounds" transform="matrix(1,0,0,1,0.2400000000000091,-0.09999999999999432)"><svg viewBox="0 0 395.52 247.2" height="247.2" width="395.52"><g><svg></svg></g><g><svg viewBox="0 0 395.52 247.2" height="247.2" width="395.52"><g transform="matrix(1,0,0,1,75.54432,100.90523734608487)"><svg viewBox="0 0 244.43135999999998 45.38952530783024" height="45.38952530783024" width="244.43135999999998"><g><svg viewBox="0 0 244.43135999999998 45.38952530783024" height="45.38952530783024" width="244.43135999999998"><g><svg viewBox="0 0 244.43135999999998 45.38952530783024" height="45.38952530783024" width="244.43135999999998"><g><svg viewBox="0 0 244.43135999999998 45.38952530783024" height="45.38952530783024" width="244.43135999999998"><g id="textblocktransform"><svg viewBox="0 0 244.43135999999998 45.38952530783024" height="45.38952530783024" width="244.43135999999998" id="textblock"><g><svg viewBox="0 0 244.43135999999998 45.38952530783024" height="45.38952530783024" width="244.43135999999998"><g transform="matrix(1,0,0,1,0,0)"><svg width="244.43135999999998" viewBox="3.98 -39.5 245.05 45.51" height="45.38952530783024" data-palette-color="#40a2e3"><path d="M13.67-15.33L13.67 0 3.98 0 3.98-35.16 13.67-35.16 13.67-19.8 26.51-19.8 26.51-35.16 36.21-35.16 36.21 0 26.51 0 26.51-15.33 13.67-15.33ZM49.88-13.38L49.88-13.38Q51.39-13.04 52.9-12.84 54.42-12.65 55.95-12.65L55.95-12.65Q57.57-12.65 58.95-12.95 60.32-13.26 61.34-13.98 62.35-14.7 62.94-15.89 63.52-17.09 63.52-18.87L63.52-18.87Q63.52-20.31 63.13-21.51 62.74-22.71 61.97-23.56 61.2-24.41 60.08-24.89 58.96-25.37 57.47-25.37L57.47-25.37Q56.08-25.37 54.97-24.85 53.85-24.34 53.01-23.47 52.17-22.61 51.57-21.46 50.97-20.31 50.58-19.07 50.19-17.82 50.02-16.55 49.85-15.28 49.85-14.16L49.85-14.16Q49.85-13.96 49.85-13.77 49.85-13.57 49.88-13.38ZM70.21-18.95L70.21-18.95Q70.21-17.21 69.65-15.86 69.09-14.5 68.12-13.48 67.16-12.45 65.89-11.74 64.62-11.04 63.18-10.58 61.74-10.13 60.21-9.94 58.69-9.74 57.25-9.74L57.25-9.74Q55.42-9.74 53.64-10 51.85-10.25 50.12-10.82L50.12-10.82Q50.39-9.2 50.97-7.75 51.56-6.3 52.54-5.21 53.51-4.13 54.94-3.49 56.37-2.86 58.32-2.86L58.32-2.86Q59.62-2.86 60.79-3.25 61.96-3.64 62.94-4.35 63.91-5.05 64.66-6.03 65.4-7.01 65.87-8.2L65.87-8.2 69.43-6.88Q68.63-4.96 67.22-3.55 65.82-2.15 64.05-1.23 62.28-0.32 60.29 0.12 58.3 0.56 56.35 0.56L56.35 0.56Q53.12 0.56 50.39-0.52 47.65-1.61 45.68-3.56 43.7-5.52 42.58-8.23 41.45-10.94 41.45-14.16L41.45-14.16Q41.45-17.38 42.58-20.09 43.7-22.8 45.68-24.76 47.65-26.71 50.39-27.8 53.12-28.88 56.35-28.88L56.35-28.88Q57.91-28.88 59.54-28.66 61.18-28.44 62.72-27.97 64.26-27.49 65.62-26.73 66.99-25.98 68-24.87 69.02-23.75 69.61-22.29 70.21-20.83 70.21-18.95ZM84.03-35.01L84.03-35.01Q84.03-34.08 83.67-33.25 83.32-32.42 82.71-31.81 82.1-31.2 81.27-30.85 80.44-30.49 79.51-30.49L79.51-30.49Q78.58-30.49 77.77-30.85 76.95-31.2 76.34-31.81 75.73-32.42 75.37-33.25 75.02-34.08 75.02-35.01L75.02-35.01Q75.02-35.94 75.37-36.76 75.73-37.57 76.34-38.18 76.95-38.79 77.77-39.15 78.58-39.5 79.51-39.5L79.51-39.5Q80.44-39.5 81.27-39.15 82.1-38.79 82.71-38.18 83.32-37.57 83.67-36.76 84.03-35.94 84.03-35.01ZM83.66-28.17L83.66 0 75.39 0 75.39-28.17 83.66-28.17ZM119.4-16.16L119.4-16.16Q119.4-13.31 118.71-10.21 118.01-7.1 116.76-4.13 115.52-1.15 113.79 1.48 112.05 4.1 109.98 6.01L109.98 6.01 106.88 4.32Q107.54 3.1 108.12 1.59 108.71 0.07 109.18-1.62 109.66-3.32 110.04-5.13 110.42-6.93 110.67-8.7 110.93-10.47 111.06-12.15 111.2-13.82 111.2-15.26L111.2-15.26Q111.2-16.21 111.13-17.3 111.05-18.38 110.82-19.47 110.59-20.56 110.2-21.56 109.81-22.56 109.16-23.32 108.51-24.07 107.6-24.54 106.68-25 105.44-25L105.44-25Q104.22-25 103.26-24.45 102.31-23.9 101.58-23.01 100.85-22.12 100.32-20.97 99.8-19.82 99.47-18.62 99.14-17.41 98.99-16.24 98.85-15.06 98.85-14.14L98.85-14.14 98.85 0 90.57 0 90.57-28.2 93.74-28.2 97.53-21.63Q98.21-23.27 99.24-24.61 100.26-25.95 101.56-26.9 102.85-27.86 104.42-28.37 106-28.88 107.83-28.88L107.83-28.88Q110.76-28.88 112.93-27.93 115.1-26.98 116.55-25.28 117.99-23.58 118.69-21.25 119.4-18.92 119.4-16.16ZM131.63-13.38L131.63-13.38Q133.14-13.04 134.66-12.84 136.17-12.65 137.71-12.65L137.71-12.65Q139.32-12.65 140.7-12.95 142.08-13.26 143.09-13.98 144.11-14.7 144.69-15.89 145.28-17.09 145.28-18.87L145.28-18.87Q145.28-20.31 144.89-21.51 144.5-22.71 143.73-23.56 142.96-24.41 141.84-24.89 140.71-25.37 139.22-25.37L139.22-25.37Q137.83-25.37 136.72-24.85 135.61-24.34 134.77-23.47 133.93-22.61 133.33-21.46 132.73-20.31 132.34-19.07 131.95-17.82 131.78-16.55 131.61-15.28 131.61-14.16L131.61-14.16Q131.61-13.96 131.61-13.77 131.61-13.57 131.63-13.38ZM151.97-18.95L151.97-18.95Q151.97-17.21 151.41-15.86 150.84-14.5 149.88-13.48 148.92-12.45 147.65-11.74 146.38-11.04 144.94-10.58 143.5-10.13 141.97-9.94 140.44-9.74 139-9.74L139-9.74Q137.17-9.74 135.39-10 133.61-10.25 131.87-10.82L131.87-10.82Q132.14-9.2 132.73-7.75 133.32-6.3 134.29-5.21 135.27-4.13 136.7-3.49 138.12-2.86 140.08-2.86L140.08-2.86Q141.37-2.86 142.54-3.25 143.72-3.64 144.69-4.35 145.67-5.05 146.41-6.03 147.16-7.01 147.62-8.2L147.62-8.2 151.19-6.88Q150.38-4.96 148.98-3.55 147.57-2.15 145.8-1.23 144.03-0.32 142.04 0.12 140.05 0.56 138.1 0.56L138.1 0.56Q134.88 0.56 132.14-0.52 129.41-1.61 127.43-3.56 125.45-5.52 124.33-8.23 123.21-10.94 123.21-14.16L123.21-14.16Q123.21-17.38 124.33-20.09 125.45-22.8 127.43-24.76 129.41-26.71 132.14-27.8 134.88-28.88 138.1-28.88L138.1-28.88Q139.66-28.88 141.3-28.66 142.93-28.44 144.47-27.97 146.01-27.49 147.38-26.73 148.74-25.98 149.76-24.87 150.77-23.75 151.37-22.29 151.97-20.83 151.97-18.95ZM165.37-9.47L165.37 0 157.12 0 157.12-38.57 165.37-38.57 165.37-13.26Q167.39-14.72 169.36-16.48 171.33-18.24 173.11-20.18 174.89-22.12 176.42-24.15 177.94-26.17 179.09-28.2L179.09-28.2 184.7-28.2Q183-25.32 180.65-22.45 178.31-19.58 175.55-16.97L175.55-16.97 184.8 0 175.7 0 169.13-11.77Q167.3-10.52 165.37-9.47L165.37-9.47ZM194.71-13.38L194.71-13.38Q196.23-13.04 197.74-12.84 199.25-12.65 200.79-12.65L200.79-12.65Q202.4-12.65 203.78-12.95 205.16-13.26 206.17-13.98 207.19-14.7 207.77-15.89 208.36-17.09 208.36-18.87L208.36-18.87Q208.36-20.31 207.97-21.51 207.58-22.71 206.81-23.56 206.04-24.41 204.92-24.89 203.79-25.37 202.3-25.37L202.3-25.37Q200.91-25.37 199.8-24.85 198.69-24.34 197.85-23.47 197.01-22.61 196.41-21.46 195.81-20.31 195.42-19.07 195.03-17.82 194.86-16.55 194.69-15.28 194.69-14.16L194.69-14.16Q194.69-13.96 194.69-13.77 194.69-13.57 194.71-13.38ZM215.05-18.95L215.05-18.95Q215.05-17.21 214.49-15.86 213.93-14.5 212.96-13.48 212-12.45 210.73-11.74 209.46-11.04 208.02-10.58 206.58-10.13 205.05-9.94 203.53-9.74 202.08-9.74L202.08-9.74Q200.25-9.74 198.47-10 196.69-10.25 194.96-10.82L194.96-10.82Q195.22-9.2 195.81-7.75 196.4-6.3 197.37-5.21 198.35-4.13 199.78-3.49 201.21-2.86 203.16-2.86L203.16-2.86Q204.45-2.86 205.62-3.25 206.8-3.64 207.77-4.35 208.75-5.05 209.49-6.03 210.24-7.01 210.7-8.2L210.7-8.2 214.27-6.88Q213.46-4.96 212.06-3.55 210.65-2.15 208.88-1.23 207.11-0.32 205.12 0.12 203.13 0.56 201.18 0.56L201.18 0.56Q197.96 0.56 195.22-0.52 192.49-1.61 190.51-3.56 188.53-5.52 187.41-8.23 186.29-10.94 186.29-14.16L186.29-14.16Q186.29-17.38 187.41-20.09 188.53-22.8 190.51-24.76 192.49-26.71 195.22-27.8 197.96-28.88 201.18-28.88L201.18-28.88Q202.74-28.88 204.38-28.66 206.02-28.44 207.55-27.97 209.09-27.49 210.46-26.73 211.83-25.98 212.84-24.87 213.85-23.75 214.45-22.29 215.05-20.83 215.05-18.95ZM249.03-16.16L249.03-16.16Q249.03-13.31 248.33-10.21 247.64-7.1 246.39-4.13 245.15-1.15 243.42 1.48 241.68 4.1 239.61 6.01L239.61 6.01 236.51 4.32Q237.17 3.1 237.75 1.59 238.34 0.07 238.81-1.62 239.29-3.32 239.67-5.13 240.05-6.93 240.3-8.7 240.56-10.47 240.69-12.15 240.83-13.82 240.83-15.26L240.83-15.26Q240.83-16.21 240.75-17.3 240.68-18.38 240.45-19.47 240.22-20.56 239.83-21.56 239.44-22.56 238.79-23.32 238.14-24.07 237.23-24.54 236.31-25 235.07-25L235.07-25Q233.84-25 232.89-24.45 231.94-23.9 231.21-23.01 230.48-22.12 229.95-20.97 229.43-19.82 229.1-18.62 228.77-17.41 228.62-16.24 228.47-15.06 228.47-14.14L228.47-14.14 228.47 0 220.2 0 220.2-28.2 223.37-28.2 227.16-21.63Q227.84-23.27 228.86-24.61 229.89-25.95 231.18-26.9 232.48-27.86 234.05-28.37 235.63-28.88 237.46-28.88L237.46-28.88Q240.39-28.88 242.56-27.93 244.73-26.98 246.17-25.28 247.61-23.58 248.32-21.25 249.03-18.92 249.03-16.16Z" opacity="1" transform="matrix(1,0,0,1,0,0)" fill="#40a2e3" class="wordmark-text-0" data-fill-palette-color="primary" id="text-0"></path></svg></g></svg></g></svg></g></svg></g></svg></g></svg></g></svg></g><path d="M187.691 94.905L187.691 33.547 7.586 33.547 7.586 213.653 187.691 213.653 187.691 152.295 183.598 152.295 183.598 209.559 11.679 209.559 11.679 37.641 183.598 37.641 183.598 94.905Z" fill="#40a2e3" stroke="transparent" data-fill-palette-color="tertiary"></path></svg></g><defs></defs></svg><rect width="395.52" height="247.2" fill="none" stroke="none" visibility="hidden"></rect></g></svg></g></svg>