<?xml version="1.0" standalone="no"?>
<!DOCTYPE svg PUBLIC "-//W3C//DTD SVG 20010904//EN"
 "http://www.w3.org/TR/2001/REC-SVG-20010904/DTD/svg10.dtd">
<svg version="1.0" xmlns="http://www.w3.org/2000/svg"
 width="2000.000000pt" height="1500.000000pt" viewBox="0 0 2000.000000 1500.000000"
 preserveAspectRatio="xMidYMid meet">

<g transform="translate(0.000000,1500.000000) scale(0.100000,-0.100000)"
fill="#000000" stroke="none">
<path d="M4641 9754 c-139 -47 -233 -129 -296 -258 -151 -308 34 -671 370
-727 l75 -13 0 -312 0 -313 -47 -6 c-191 -25 -328 -85 -447 -196 -95 -89 -164
-193 -202 -304 -16 -47 -34 -85 -41 -85 -8 0 -124 29 -259 65 -135 36 -248 65
-250 65 -2 0 -4 35 -4 78 0 144 -42 250 -142 358 -239 255 -677 186 -827 -131
-179 -376 138 -794 548 -725 147 25 290 126 356 253 17 31 35 55 40 53 6 -2
128 -34 271 -72 l261 -68 6 -91 c4 -49 14 -117 22 -150 39 -144 140 -299 253
-388 l62 -48 -61 -82 c-33 -45 -122 -166 -197 -269 -97 -133 -141 -186 -152
-182 -198 72 -406 28 -550 -116 -101 -101 -150 -218 -150 -360 0 -143 48 -258
150 -360 102 -102 217 -150 360 -150 143 0 258 48 360 150 198 198 200 521 4
717 -32 33 -51 59 -47 66 10 17 373 510 383 521 5 4 37 -1 72 -13 183 -60 377
-50 547 30 55 25 67 28 78 16 8 -8 108 -141 222 -296 l208 -283 -51 -52 c-87
-89 -136 -213 -136 -346 0 -143 48 -258 150 -360 102 -102 217 -150 360 -150
143 0 258 48 360 150 283 283 148 756 -243 857 -81 20 -211 13 -286 -16 -30
-11 -55 -20 -56 -18 -1 1 -96 130 -211 287 -115 157 -213 291 -218 298 -5 9 5
24 31 47 133 114 233 337 233 522 l0 72 53 15 c95 27 474 126 483 126 5 0 20
-21 34 -47 32 -61 118 -153 179 -192 151 -97 352 -104 515 -18 119 63 226 199
255 327 16 68 13 199 -5 261 -42 142 -146 264 -276 323 -86 40 -126 48 -228
47 -192 -1 -362 -110 -446 -286 -39 -81 -57 -165 -52 -242 2 -41 -1 -54 -12
-58 -62 -18 -513 -135 -515 -133 0 2 -9 30 -19 63 -77 257 -293 447 -578 509
l-28 6 0 324 0 324 38 13 c124 40 247 139 304 245 77 143 77 344 0 488 -34 65
-143 174 -208 208 -119 64 -275 76 -403 32z m322 -149 c68 -34 149 -116 180
-182 18 -40 22 -66 22 -153 0 -96 -2 -110 -29 -163 -33 -64 -102 -134 -163
-166 -22 -11 -70 -26 -107 -32 -165 -31 -333 56 -404 209 -23 49 -27 70 -27
152 0 81 4 103 26 150 45 96 106 154 208 197 48 20 69 23 146 20 75 -3 100 -8
148 -32z m-1796 -1507 c199 -73 291 -315 195 -510 -93 -189 -322 -258 -515
-155 -67 35 -116 88 -155 167 -24 48 -27 67 -27 150 0 84 3 103 29 157 83 180
284 261 473 191z m3540 0 c102 -38 183 -122 219 -230 25 -77 16 -207 -20 -276
-57 -113 -147 -179 -274 -202 -140 -25 -286 36 -366 153 -99 147 -84 335 40
467 102 109 253 143 401 88z m-2765 -2030 c79 -36 142 -98 181 -177 29 -60 32
-74 32 -161 0 -87 -3 -101 -32 -161 -39 -79 -102 -140 -181 -177 -49 -23 -70
-27 -152 -27 -82 0 -103 4 -152 27 -79 37 -142 98 -181 177 -29 60 -32 74 -32
161 0 82 4 103 26 151 47 99 128 171 232 205 67 22 190 13 259 -18z m2150 0
c79 -36 142 -98 181 -177 29 -60 32 -74 32 -161 0 -87 -3 -101 -32 -161 -39
-79 -102 -140 -181 -177 -49 -23 -70 -27 -152 -27 -82 0 -103 4 -152 27 -76
35 -138 94 -179 170 -32 60 -34 68 -34 163 0 87 3 107 26 156 47 99 128 171
232 205 67 22 190 13 259 -18z"/>
</g>
</svg>
